<svg width="111" height="82" viewBox="0 0 111 82" fill="none" xmlns="http://www.w3.org/2000/svg">
<g clip-path="url(#clip0_7484_35970)">
<path d="M4.21619 73.9736C6.27891 73.9736 7.33319 75.2521 7.33319 77.2839C7.33319 79.27 6.43935 80.7996 4.23911 80.7996H1.90137V73.9965H4.21619V73.9736ZM2.31391 80.4343H4.07868C6.16432 80.4343 6.92065 79.1787 6.92065 77.3067C6.92065 75.5489 6.09556 74.3389 4.19328 74.3389H2.31391V80.4343Z" fill="#E8E6E6" stroke="white" stroke-width="0.2"/>
<path d="M18.6097 74.3389H14.4155V77.0556H18.3576V77.4209H14.4155V80.4115H18.6555V80.7768H14.0029V73.9736H18.6097V74.3389Z" fill="#E8E6E6" stroke="white" stroke-width="0.2"/>
<path d="M29.7483 74.3389H25.5541V77.0556H29.4962V77.4209H25.5541V80.4115H29.7942V80.7768H25.1416V73.9736H29.7483V74.3389Z" fill="#E8E6E6" stroke="white" stroke-width="0.2"/>
<path d="M39.0293 73.9736C39.7397 73.9736 40.1523 74.0649 40.4961 74.2932C41.0003 74.6357 41.2753 75.1836 41.2753 75.8685C41.2753 76.5077 41.0461 77.0556 40.5648 77.398C40.1981 77.672 39.7627 77.7861 39.1668 77.7861H36.8061V80.7996H36.3936V73.9965H39.0293V73.9736ZM36.7832 77.4209H38.9147C39.5564 77.4209 39.8314 77.3524 40.1294 77.1926C40.6107 76.9186 40.8399 76.4849 40.8399 75.8913C40.8399 75.3206 40.6336 74.8868 40.244 74.6129C39.8314 74.3389 39.4418 74.3389 38.9605 74.3389H36.7832V77.4209Z" fill="#E8E6E6" stroke="white" stroke-width="0.2"/>
<path d="M47.4191 79.5669C47.7629 79.5669 48.015 79.818 48.015 80.1604C48.015 80.5029 47.7629 80.7768 47.4191 80.7768C47.0754 80.7768 46.8232 80.5029 46.8232 80.1604C46.8232 79.818 47.0754 79.5669 47.4191 79.5669Z" fill="#E8E6E6"/>
<path d="M57.87 76.2791L60.8037 73.6309H61.6517V80.7993H59.7494V77.1237L57.87 78.8359L55.9677 77.1237V80.7993H54.0654V73.6309H54.9134L57.87 76.2791Z" fill="#E8E6E6"/>
<path d="M72.3083 73.6084C74.3022 73.6084 75.9066 75.2293 75.9066 77.2154C75.9066 79.2016 74.3022 80.7996 72.3083 80.7996C70.3143 80.7996 68.71 79.2016 68.71 77.2154C68.7329 75.2293 70.3372 73.6084 72.3083 73.6084ZM72.3083 75.5032C71.3686 75.5032 70.5893 76.2794 70.5893 77.2154C70.5893 78.1514 71.3686 78.9276 72.3083 78.9276C73.2479 78.9276 74.0272 78.1514 74.0272 77.2154C74.0272 76.2566 73.2709 75.5032 72.3083 75.5032Z" fill="#E8E6E6"/>
<path d="M89.5452 73.6084L86.199 80.7996H85.3281L81.959 73.6084H83.8613L85.7636 77.6949L87.6658 73.6084H89.5452Z" fill="#E8E6E6"/>
<path d="M96.1221 73.6084H98.0243V80.7996H96.1221V73.6084Z" fill="#E8E6E6"/>
<path d="M105.243 73.6084H109.712V75.1608H107.123V76.3251H109.414V77.9231H107.123V79.2473H109.712V80.7768H105.243V73.6084Z" fill="#E8E6E6"/>
<path d="M72.6474 15.303V2.57014V0.425293H70.509H63.279H61.6327H61.1406V0.459338L55.6417 7.74499V8.15353V15.303H47.5122C47.3425 15.32 43.0996 15.6264 38.8566 18.5032C34.9362 21.1588 30.252 26.589 30.252 37.3302C30.252 48.1225 35.4453 53.3314 39.7901 55.8167C44.4743 58.4892 49.1076 58.6084 49.2943 58.6084H66.86H67.471L72.0195 50.8291L72.6644 49.6886L72.6474 15.303ZM57.7801 8.5791L61.1406 4.11919V15.286H57.7801V8.5791ZM70.509 48.3438H50.1598C49.1585 48.1395 40.7914 46.1138 40.7914 36.2918C40.7914 32.0021 42.251 28.9211 45.1362 27.1167C47.1898 25.8229 49.2264 25.6697 49.447 25.6527H61.1575V40.4453H57.8141L57.7123 30.9467H50.8726C50.5332 30.9297 49.1415 30.9127 47.9705 31.9851C46.9352 32.9214 46.4091 34.3683 46.4091 36.2918C46.4091 40.6326 49.3791 42.3178 50.9575 42.5902L51.0593 42.6072H63.296V23.5079H49.3622C49.2434 23.5079 46.6297 23.6441 43.9991 25.2952C41.5551 26.8273 38.653 29.9765 38.653 36.3088C38.653 42.5902 41.7079 46.1309 44.2706 47.9863C47.0201 49.978 49.7695 50.4886 49.8883 50.5057L49.9901 50.5227H69.7452L66.266 56.4636H49.3282C49.3112 56.4636 45.0004 56.3444 40.7914 53.9102C35.2247 50.7099 32.4074 45.1265 32.4074 37.3302C32.4074 29.5168 34.9531 23.7973 39.9937 20.3417C43.5918 17.8734 47.2746 17.4819 47.648 17.4479H61.1745H63.3129V15.303V2.57014H70.5429V15.303V17.4479V22.4184V25.6527V48.3438H70.509ZM55.6417 40.4623H51.246C50.7538 40.3432 48.5475 39.6112 48.5475 36.3088C48.5475 35.0492 48.836 34.13 49.3791 33.6193C49.9562 33.0746 50.6859 33.1256 50.7199 33.1256H50.7708H50.8048H55.5568L55.6417 40.4623Z" fill="#E8E6E6"/>
</g>
<defs>
<clipPath id="clip0_7484_35970">
<rect width="110" height="81" fill="white" transform="translate(0.767578 0.425293)"/>
</clipPath>
</defs>
</svg>
